<svg id="Layer_1" data-name="Layer 1" xmlns="http://www.w3.org/2000/svg" viewBox="0 0 512 512"><title>monitor-screen-flat</title><path d="M0,256C0,114.61,114.61,0,256,0S512,114.63,512,256,397.38,512,256,512,0,397.39,0,256Z" fill="#00c7ff"/><path d="M275.69,310.5H262a3.54,3.54,0,0,1-7,0H241.1c-2.06,0-3.73,3.64-3.73,8.13v21.68c0,4.49,1.67,8.13,3.73,8.13h34.6c2.06,0,3.73-3.64,3.73-8.13V318.63C279.42,314.14,277.75,310.5,275.69,310.5Z" fill="#dfe2e3"/><path d="M380.15,135.09H131.85c-4.37,0-7.92,4.11-7.92,9.18V315.69c0,5.07,3.55,9.18,7.92,9.18H380.15c4.37,0,7.92-4.11,7.92-9.18V144.27C388.07,139.2,384.52,135.09,380.15,135.09ZM258.52,313.4c-4.77,0-4.77-7.65,0-7.65S263.29,313.4,258.52,313.4Zm110.19-17.88H142V161.87H368.71Z" fill="#fff"/><path d="M141.16,367.73a9,9,0,0,0,8.88,9.18H369.71a9,9,0,0,0,8.87-9.18V354a9,9,0,0,0-8.87-9.18H150a9,9,0,0,0-8.88,9.18Z" fill="#fff"/></svg>